PathFileType	4	(X/Y/Z)	/Users/itak/Documents/Research/Walk-IL/dataset/trc/00333_00011.trc
DataRate	CameraRate	NumFrames	NumMarkers	Units	OrigDataRate	OrigDataStartFrame	OrigNumFrames
100.000000	100.000000	4	54	mm	100.000000	0	506
Frame#	Time	RPSI			LPSI			L3			STRN			T10			C7			CLAV			RBAK			LBAK			LSHO			LUPA			LAEL			LAOL			LWTS			LWPS			LFRA			LIFD			LHPS			LHTS			RSHO			RUPA			RAEL			RAOL			RWTS			RWPS			RFRA			RIFD			RHTS			RHPS			RBHD			LFHD			RFHD			LBHD			LHIP			RHIP			RASI			LASI			LKNE			LTHI			LANK			LTIP			LTOE			LMT5			LHEE			RKNE			RTHI			RANK			RTIP			RTOE			RMT1			RMT5			RHEE			LMT1			*53			
		X1	Y1	Z1	X2	Y2	Z2	X3	Y3	Z3	X4	Y4	Z4	X5	Y5	Z5	X6	Y6	Z6	X7	Y7	Z7	X8	Y8	Z8	X9	Y9	Z9	X10	Y10	Z10	X11	Y11	Z11	X12	Y12	Z12	X13	Y13	Z13	X14	Y14	Z14	X15	Y15	Z15	X16	Y16	Z16	X17	Y17	Z17	X18	Y18	Z18	X19	Y19	Z19	X20	Y20	Z20	X21	Y21	Z21	X22	Y22	Z22	X23	Y23	Z23	X24	Y24	Z24	X25	Y25	Z25	X26	Y26	Z26	X27	Y27	Z27	X28	Y28	Z28	X29	Y29	Z29	X30	Y30	Z30	X31	Y31	Z31	X32	Y32	Z32	X33	Y33	Z33	X34	Y34	Z34	X35	Y35	Z35	X36	Y36	Z36	X37	Y37	Z37	X38	Y38	Z38	X39	Y39	Z39	X40	Y40	Z40	X41	Y41	Z41	X42	Y42	Z42	X43	Y43	Z43	X44	Y44	Z44	X45	Y45	Z45	X46	Y46	Z46	X47	Y47	Z47	X48	Y48	Z48	X49	Y49	Z49	X50	Y50	Z50	X51	Y51	Z51	X52	Y52	Z52	X53	Y53	Z53	X54	Y54	Z54	

1	0	893.7542724609375	970.6965942382812	231.9900054931641	891.5388793945312	970.1094970703125	103.8057479858398	889.7029418945312	1023.389770507812	172.6509094238281	1109.932373046875	1219.803344726562	149.3955993652344	872.94091796875	1143.25927734375	163.8934173583984	897.99951171875	1392.850952148438	142.0258941650391	1057.89794921875	1341.970092773438	143.8395385742188	859.7178344726562	1253.8408203125	214.352294921875	888.369873046875	1352.15185546875	41.27109527587891	971.0946044921875	1372.085571289062	-17.76244163513184	959.6812133789062	1249.84814453125	-83.10928344726562	990.0966796875	1045.712768554688	-87.18647003173828	927.445556640625	1032.107666015625	-31.48059463500977	1093.276245117188	807.1732177734375	-30.98354911804199	1057.007202148438	794.3539428710938	-88.75104522705078	1010.574157714844	942.2714233398438	-89.63889312744141	1101.54052734375	647.2796020507812	-23.80475616455078	1056.542236328125	724.0933227539062	-81.6917724609375	1108.594116210938	729.8646240234375	-45.50322341918945	963.4406127929688	1384.353637695312	303.5578918457031	959.5303344726562	1319.6787109375	370.2381896972656	984.5956420898438	1051.187622070312	401.8988952636719	935.4114990234375	1042.30224609375	323.3811950683594	1094.654541015625	827.6055297851562	337.0579833984375	1070.960571289062	811.0635375976562	408.1485290527344	1014.113159179688	984.8658447265625	405.86328125	1114.8818359375	654.0015869140625	341.9609680175781	1127.751098632812	726.635498046875	345.8203735351562	1087.04833984375	727.512939453125	401.8369445800781	933.6620483398438	1597.718139648438	219.9616088867188	1103.026245117188	1617.643676757812	100.1655960083008	1093.949829101562	1617.83642578125	201.1115875244141	919.7614135742188	1591.298828125	76.03899383544922	975.649658203125	911.1796875	-0.3860291242599487	973.98193359375	916.5042114257812	339.172607421875	1077.97216796875	947.7703857421875	295.6194152832031	1097.223266601562	942.9299926757812	55.37839889526367	1012.423706054688	455.1135559082031	17.22374534606934	1018.644348144531	595.2390747070312	6.522138595581055	921.1458129882812	39.03042984008789	34.06465148925781	963.8600463867188	239.7822723388672	13.41444778442383	1126.636352539062	33.43685913085938	93.32746887207031	1046.168579101562	34.34649276733398	21.24347496032715	887.0181274414062	34.66022109985352	100.9690628051758	997.8853759765625	453.0388793945312	315.8420104980469	1024.836181640625	712.5820922851562	357.5301513671875	930.155029296875	41.84758377075195	289.6650390625	999.0521240234375	334.212890625	307.2325134277344	1120.88623046875	35.77542495727539	232.0145874023438	1063.949096679688	30.37748146057129	192.6527404785156	1031.79736328125	28.31468200683594	305.6264953613281	877.2749633789062	44.20735168457031	242.5848999023438	1057.521118164062	20.88315582275391	134.0992584228516	nan	nan	nan	
2	0.01	893.8062133789062	970.7067260742188	231.9744567871094	891.59814453125	970.1093139648438	103.7953109741211	889.7291870117188	1023.381896972656	172.6360778808594	1109.96142578125	1219.785522460938	149.368408203125	872.9686889648438	1143.251953125	163.8878173828125	898.0389404296875	1392.831176757812	142.0067596435547	1057.9169921875	1341.949951171875	143.8257904052734	859.7537231445312	1253.827392578125	214.3374481201172	888.387451171875	1352.10986328125	41.28839874267578	971.111572265625	1372.057373046875	-17.78890228271484	959.676513671875	1249.825805664062	-83.11976623535156	990.0825805664062	1045.697143554688	-87.19065856933594	927.4391479492188	1032.084838867188	-31.44839668273926	1093.237670898438	807.1341552734375	-30.98122024536133	1056.963256835938	794.309814453125	-88.74323272705078	1010.5458984375	942.2448120117188	-89.63041687011719	1101.483520507812	647.2083740234375	-23.76657676696777	1056.494750976562	724.0680541992188	-81.68160247802734	1108.572265625	729.8265380859375	-45.49882125854492	963.4712524414062	1384.344116210938	303.5325012207031	959.5653686523438	1319.6767578125	370.206787109375	984.6189575195312	1051.183471679688	401.86865234375	935.4447631835938	1042.274047851562	323.3595581054688	1094.683715820312	827.597412109375	337.0453796386719	1070.972290039062	811.0673828125	408.1320190429688	1014.1455078125	984.8358154296875	405.8008422851562	1114.907104492188	653.9970703125	341.9505004882812	1127.768920898438	726.6224365234375	345.8262939453125	1087.069213867188	727.5051879882812	401.830322265625	933.6856079101562	1597.701538085938	219.9215545654297	1103.1025390625	1617.672485351562	100.0741119384766	1093.9921875	1617.841430664062	201.0712280273438	919.7844848632812	1591.2900390625	76.01081848144531	975.6911010742188	911.1707763671875	-0.3981327414512634	974.1156005859375	916.4825439453125	339.204833984375	1078.002075195312	947.7694091796875	295.6098327636719	1097.233276367188	942.9157104492188	55.37391662597656	1012.455139160156	455.1069030761719	17.22355079650879	1018.6806640625	595.2321166992188	6.514301776885986	921.1471557617188	39.03382110595703	34.06412506103516	963.8828735351562	239.7840728759766	13.40918636322021	1126.637084960938	33.43540191650391	93.32819366455078	1046.168579101562	34.34735107421875	21.24253273010254	887.0178833007812	34.66170120239258	100.9688415527344	997.8933715820312	453.0371398925781	315.8351440429688	1024.876098632812	712.5792846679688	357.517822265625	930.1565551757812	41.85268783569336	289.6639099121094	999.0709228515625	334.2143859863281	307.2211303710938	1120.88818359375	35.77543640136719	232.0127563476562	1063.948852539062	30.37780952453613	192.6522827148438	1031.796264648438	28.31303596496582	305.6264953613281	877.27099609375	44.19528961181641	242.5721893310547	1057.522583007812	20.88222122192383	134.0984344482422	nan	nan	nan	
3	0.02	893.8722534179688	970.7192993164062	231.9530639648438	891.6832275390625	970.1088256835938	103.7821578979492	889.7657470703125	1023.37060546875	172.6162719726562	1110.002075195312	1219.762451171875	149.3304443359375	873.00634765625	1143.240966796875	163.8809051513672	898.0888061523438	1392.804077148438	141.9817504882812	1057.941772460938	1341.924682617188	143.8074645996094	859.80126953125	1253.811279296875	214.31787109375	888.412841796875	1352.0576171875	41.30825042724609	971.1355590820312	1372.020263671875	-17.82302093505859	959.6724243164062	1249.795654296875	-83.13321685791016	990.06396484375	1045.673950195312	-87.19415283203125	927.4305419921875	1032.053955078125	-31.4048957824707	1093.186645507812	807.082763671875	-30.97647857666016	1056.905151367188	794.2510375976562	-88.72887420654297	1010.508666992188	942.2096557617188	-89.61869049072266	1101.40869140625	647.1174926757812	-23.71755027770996	1056.4267578125	724.0331420898438	-81.66464996337891	1108.535766601562	729.767333984375	-45.48319625854492	963.511962890625	1384.332397460938	303.4988708496094	959.61181640625	1319.673461914062	370.1669921875	984.6522216796875	1051.178466796875	401.8288879394531	935.4927368164062	1042.23779296875	323.3282165527344	1094.724365234375	827.587890625	337.028076171875	1070.99072265625	811.0744018554688	408.1137084960938	1014.189025878906	984.7911376953125	405.7152404785156	1114.943359375	653.9872436523438	341.9422912597656	1127.797119140625	726.6060180664062	345.8319702148438	1087.096801757812	727.4926147460938	401.8181457519531	933.7155151367188	1597.681518554688	219.8687744140625	1103.197143554688	1617.7060546875	99.96096038818359	1094.045166015625	1617.847290039062	201.0206298828125	919.81494140625	1591.276611328125	75.97333526611328	975.7457885742188	911.1599731445312	-0.4136285185813904	974.282958984375	916.4564819335938	339.2427368164062	1078.04248046875	947.7672729492188	295.5970458984375	1097.248657226562	942.896728515625	55.3685302734375	1012.49609375	455.0986328125	17.22328758239746	1018.731201171875	595.2223510742188	6.504260063171387	921.1492919921875	39.03828430175781	34.06351089477539	963.9130249023438	239.7861328125	13.40277576446533	1126.63818359375	33.43406295776367	93.32882690429688	1046.168823242188	34.34830474853516	21.24186325073242	887.0180053710938	34.66354370117188	100.9686737060547	997.9058227539062	453.0345764160156	315.825927734375	1024.927734375	712.5753173828125	357.5029602050781	930.1587524414062	41.85847091674805	289.6629028320312	999.0938720703125	334.2167053222656	307.2064514160156	1120.890625	35.77510452270508	232.0107574462891	1063.94873046875	30.3785457611084	192.6515502929688	1031.794311523438	28.3106861114502	305.6261901855469	877.2664794921875	44.18219375610352	242.5576782226562	1057.5244140625	20.88048553466797	134.0977478027344	nan	nan	nan	
4	0.03	893.9493408203125	970.7337646484375	231.9259643554688	891.7959594726562	970.1077880859375	103.7668991088867	889.81298828125	1023.355651855469	172.5918884277344	1110.054565429688	1219.734985351562	149.2817077636719	873.0536499023438	1143.225830078125	163.8731231689453	898.14697265625	1392.769775390625	141.9515991210938	1057.9716796875	1341.8955078125	143.7846984863281	859.8597412109375	1253.793823242188	214.2940673828125	888.4465942382812	1351.997924804688	41.32876968383789	971.1669311523438	1371.975341796875	-17.86362457275391	959.6698608398438	1249.758178710938	-83.14884185791016	990.0411376953125	1045.642456054688	-87.19569396972656	927.4197387695312	1032.01513671875	-31.35047340393066	1093.12451171875	807.0202026367188	-30.96834182739258	1056.834350585938	794.1785278320312	-88.70600128173828	1010.46337890625	942.166748046875	-89.60369110107422	1101.318237304688	647.0113525390625	-23.659912109375	1056.337280273438	723.9887084960938	-81.63945770263672	1108.481079101562	729.6836547851562	-45.45101165771484	963.561767578125	1384.31884765625	303.4577331542969	959.6689453125	1319.668823242188	370.1207580566406	984.6956787109375	1051.1728515625	401.78076171875	935.5560302734375	1042.194458007812	323.2867736816406	1094.776489257812	827.5776977539062	337.0061645507812	1071.01708984375	811.085205078125	408.0957641601562	1014.243103027344	984.7314453125	405.6084289550781	1114.99169921875	653.9700927734375	341.9400634765625	1127.837646484375	726.5872802734375	345.8358764648438	1087.130981445312	727.474853515625	401.79931640625	933.750732421875	1597.65966796875	219.8044586181641	1103.304443359375	1617.741088867188	99.83290863037109	1094.106201171875	1617.853637695312	200.9622802734375	919.8523559570312	1591.257690429688	75.9271240234375	975.8134765625	911.1478271484375	-0.4317336976528168	974.4756469726562	916.4278564453125	339.2830505371094	1078.093017578125	947.7635498046875	295.5813293457031	1097.270141601562	942.8732299804688	55.36278915405273	1012.545227050781	455.0892639160156	17.22300338745117	1018.796020507812	595.2097778320312	6.492484569549561	921.152099609375	39.04369354248047	34.06284713745117	963.949951171875	239.7882843017578	13.39566802978516	1126.639526367188	33.43309020996094	93.32921600341797	1046.169555664062	34.3492546081543	21.24174880981445	887.0186157226562	34.66562652587891	100.9686279296875	997.9236450195312	453.0310668945312	315.814453125	1024.988891601562	712.5701293945312	357.4866943359375	930.1616821289062	41.86431503295898	289.6622314453125	999.1199340820312	334.2200012207031	307.1889343261719	1120.893310546875	35.77425765991211	232.0087890625	1063.94873046875	30.37974739074707	192.6504669189453	1031.791625976562	28.30771827697754	305.62548828125	877.2620239257812	44.16961669921875	242.5427398681641	1057.526611328125	20.87778854370117	134.0974426269531	nan	nan	nan	
